<?xml version="1.0" encoding="UTF-8"?>
<svg xmlns="http://www.w3.org/2000/svg" xmlns:xlink="http://www.w3.org/1999/xlink" width="16px" height="16px" viewBox="0 0 16 16" version="1.1">
<g id="surface1">
<path style=" stroke:none;fill-rule:nonzero;fill:rgb(0%,0%,0%);fill-opacity:1;" d="M 9.5625 0.234375 C 8.476562 0.328125 7.542969 0.640625 6.707031 1.179688 C 5.339844 2.0625 4.414062 3.445312 4.136719 5.007812 C 4.066406 5.390625 4.050781 5.589844 4.050781 6.035156 C 4.050781 6.496094 4.074219 6.714844 4.164062 7.160156 C 4.246094 7.582031 4.414062 8.082031 4.621094 8.539062 L 4.730469 8.773438 L 2.578125 10.878906 C 0.25 13.160156 0.328125 13.078125 0.1875 13.417969 C -0.078125 14.074219 0.0820312 14.800781 0.605469 15.289062 C 0.910156 15.582031 1.285156 15.742188 1.714844 15.765625 C 2.105469 15.792969 2.515625 15.679688 2.828125 15.460938 C 2.878906 15.425781 3.890625 14.449219 5.070312 13.300781 L 7.21875 11.203125 L 7.460938 11.316406 C 7.992188 11.566406 8.398438 11.691406 8.960938 11.789062 C 10.9375 12.121094 12.925781 11.496094 14.289062 10.117188 C 15.214844 9.179688 15.773438 8.011719 15.925781 6.703125 C 15.960938 6.402344 15.957031 5.746094 15.917969 5.4375 C 15.714844 3.820312 14.859375 2.367188 13.542969 1.398438 C 12.707031 0.785156 11.746094 0.398438 10.722656 0.269531 C 10.496094 0.238281 9.746094 0.21875 9.5625 0.234375 Z M 10.246094 1.246094 C 11.066406 1.289062 11.855469 1.527344 12.550781 1.945312 C 13.027344 2.230469 13.597656 2.734375 13.925781 3.164062 C 14.519531 3.941406 14.855469 4.832031 14.914062 5.78125 C 14.964844 6.621094 14.800781 7.425781 14.417969 8.1875 C 13.667969 9.6875 12.179688 10.703125 10.480469 10.878906 C 10.160156 10.910156 9.480469 10.890625 9.191406 10.839844 C 8.125 10.65625 7.238281 10.207031 6.492188 9.480469 C 5.75 8.75 5.292969 7.882812 5.101562 6.84375 C 5.050781 6.558594 5.03125 5.894531 5.066406 5.582031 C 5.160156 4.683594 5.5 3.855469 6.074219 3.121094 C 6.238281 2.90625 6.664062 2.480469 6.882812 2.308594 C 7.410156 1.894531 8.117188 1.550781 8.785156 1.378906 C 9.078125 1.304688 9.417969 1.261719 9.875 1.234375 C 9.898438 1.230469 10.066406 1.238281 10.246094 1.246094 Z M 5.449219 9.824219 C 5.652344 10.054688 6.03125 10.414062 6.253906 10.585938 L 6.421875 10.71875 L 4.378906 12.710938 C 2.449219 14.59375 2.324219 14.710938 2.199219 14.773438 C 1.65625 15.039062 1.042969 14.71875 0.949219 14.128906 C 0.929688 14.007812 0.929688 13.96875 0.957031 13.859375 C 1.027344 13.582031 0.921875 13.695312 3.140625 11.519531 L 5.191406 9.515625 L 5.238281 9.574219 C 5.265625 9.609375 5.359375 9.71875 5.449219 9.824219 Z M 5.449219 9.824219 "/>
<path style=" stroke:none;fill-rule:nonzero;fill:rgb(0%,0%,0%);fill-opacity:1;" d="M 9.503906 2.691406 C 8.191406 2.878906 7.09375 3.773438 6.675781 4.996094 C 6.53125 5.425781 6.449219 6.042969 6.523438 6.179688 C 6.554688 6.238281 6.65625 6.292969 6.734375 6.292969 C 6.804688 6.292969 6.890625 6.246094 6.921875 6.1875 C 6.933594 6.160156 6.953125 6.046875 6.960938 5.941406 C 7.007812 5.1875 7.296875 4.546875 7.820312 4.03125 C 8.054688 3.800781 8.230469 3.664062 8.484375 3.519531 C 8.890625 3.296875 9.445312 3.148438 9.902344 3.148438 C 10.070312 3.148438 10.148438 3.082031 10.179688 2.921875 C 10.195312 2.835938 10.15625 2.738281 10.09375 2.691406 C 10.039062 2.65625 9.769531 2.65625 9.503906 2.691406 Z M 9.503906 2.691406 "/>
</g>
</svg>
